<svg width="40" height="40" viewBox="0 0 40 40" fill="none" xmlns="http://www.w3.org/2000/svg">
    <rect width="40" height="40" rx="20" fill="#4D22C5"/>
    <path d="M26 12H24.7717C24.783 11.3635 24.6549 10.7314 24.3951 10.1404C24.1352 9.54941 23.7487 9.01141 23.2581 8.5577C22.7675 8.10398 22.1826 7.74364 21.5374 7.49768C20.8923 7.25172 20.1998 7.12506 19.5003 7.12506C18.8009 7.12506 18.1084 7.25172 17.4632 7.49768C16.8181 7.74364 16.2332 8.10398 15.7426 8.5577C15.252 9.01141 14.8655 9.54941 14.6056 10.1404C14.3457 10.7314 14.2177 11.3635 14.229 12H13.0007C12.9882 11.2162 13.1471 10.438 13.468 9.71053C13.789 8.98309 14.2657 8.32096 14.8703 7.76266C15.475 7.20437 16.1956 6.76104 16.9902 6.45843C17.7848 6.15583 18.6376 6 19.499 6C20.3604 6 21.2132 6.15583 22.0078 6.45843C22.8024 6.76104 23.523 7.20437 24.1276 7.76266C24.7323 8.32096 25.2089 8.98309 25.5299 9.71053C25.8509 10.438 26.0098 11.2162 25.9973 12H26Z" fill="white"/>
    <path d="M19.8039 34H20C19.8574 31.4777 19.6623 29.3034 19.4146 27.477C19.1468 25.5017 18.8187 23.8873 18.4303 22.6338C18.0419 21.3804 17.5881 20.4614 17.0689 19.877C16.5498 19.2935 15.9621 19.0013 15.3059 19.0003C14.8016 18.9922 14.3065 19.1428 13.8843 19.4329C13.4458 19.7478 13.0887 20.1724 12.8451 20.6686C12.5398 21.2826 12.3266 21.9426 12.2131 22.6252C12.0638 23.4778 11.9927 24.3435 12.0006 25.2104C12.0017 25.7937 12.0319 26.3766 12.0911 26.9565C12.1514 27.5583 12.2364 28.1576 12.3461 28.7545C12.4558 29.3515 12.5855 29.9397 12.7354 30.5194C12.8643 31.0182 13.0014 31.4907 13.1467 31.9367C13.4031 32.1227 13.6677 32.3001 13.9418 32.4644C15.6656 33.4891 17.6196 34.001 19.8039 34Z" fill="white"/>
    <path d="M28.6464 13.0003H10.3508C9.73566 12.9919 9.14245 13.2353 8.70162 13.677C8.26078 14.1187 8.00841 14.7226 8 15.3558V21.8821C8 24.2729 8.49294 26.395 9.47881 28.2484C9.86621 28.9852 10.3319 29.6755 10.8674 30.3066L10.8382 30.1851C10.6388 29.3136 10.4868 28.4313 10.3828 27.5423C10.2769 26.6593 10.2231 25.7705 10.2217 24.8808C10.2109 23.857 10.3101 22.835 10.5174 21.8335C10.6792 21.0242 10.9771 20.2502 11.3978 19.5466C11.7592 18.9493 12.258 18.453 12.8502 18.1015C13.4689 17.7519 14.1664 17.5768 14.8719 17.5941C15.5812 17.5807 16.2782 17.7863 16.8729 18.1844C17.4923 18.621 18.0093 19.1943 18.3864 19.8625C18.8593 20.6873 19.2275 21.5712 19.4819 22.4924C19.8046 23.6221 20.0597 24.7711 20.2456 25.9329C20.4558 27.2002 20.628 28.5709 20.7622 30.045C20.8788 31.3057 20.9779 32.624 21.0594 34C22.5971 33.8317 24.0851 33.3414 25.4319 32.5592L25.468 32.5364C25.5097 32.4492 25.5513 32.362 25.5888 32.2691C25.7976 31.7556 25.9603 31.2236 26.0748 30.6797C26.2013 30.0864 26.2899 29.4853 26.34 28.8801C26.3928 28.2503 26.4192 27.6185 26.4192 26.9848C26.4234 26.2059 26.3826 25.4275 26.297 24.6536C26.2215 23.9922 26.1084 23.3359 25.9582 22.6882C25.8156 22.0812 25.6494 21.4986 25.4597 20.9402C25.2699 20.3818 25.069 19.8201 24.857 19.255H26.6538C26.9584 20.429 27.2231 21.6815 27.4481 23.0127C27.6792 24.4127 27.7925 25.8306 27.7869 27.2507C27.7933 28.4413 27.6882 29.6298 27.4731 30.7997C27.4564 30.8869 27.437 30.9727 27.4189 31.0584C28.2615 30.2438 28.9713 29.295 29.5212 28.2484C30.5071 26.395 31 24.2729 31 21.8821V15.3529C30.9909 14.7197 30.7378 14.1161 30.2964 13.675C29.8551 13.2338 29.2615 12.9911 28.6464 13.0003V13.0003Z" fill="white"/>
</svg>
