<svg width="39" height="48" viewBox="0 0 39 48" fill="none" xmlns="http://www.w3.org/2000/svg">
<path d="M30.8174 11.3699H28.7006C28.72 10.1638 28.4994 8.96592 28.0516 7.846C27.6037 6.72609 26.9377 5.70658 26.0922 4.8468C25.2467 3.98702 24.2387 3.30417 23.1269 2.83808C22.0151 2.37199 20.8217 2.13197 19.6163 2.13197C18.4109 2.13197 17.2175 2.37199 16.1057 2.83808C14.9939 3.30417 13.9859 3.98702 13.1404 4.8468C12.2949 5.70658 11.6289 6.72609 11.1811 7.846C10.7332 8.96592 10.5126 10.1638 10.532 11.3699H8.41524C8.39373 9.88462 8.66751 8.40989 9.22064 7.0314C9.77378 5.65292 10.5952 4.39818 11.6373 3.34022C12.6793 2.28226 13.9211 1.44216 15.2905 0.868726C16.6599 0.295298 18.1295 0 19.614 0C21.0984 0 22.568 0.295298 23.9374 0.868726C25.3068 1.44216 26.5486 2.28226 27.5906 3.34022C28.6327 4.39818 29.4541 5.65292 30.0073 7.0314C30.5604 8.40989 30.8342 9.88462 30.8127 11.3699H30.8174Z" fill="#4D22C5"/>
<path d="M19.4713 47.4272H19.8077C19.563 43.3084 19.2283 39.7578 18.8033 36.7754C18.3439 33.5497 17.7809 30.9134 17.1145 28.8666C16.4481 26.8197 15.6695 25.3191 14.7788 24.3647C13.8882 23.4119 12.8799 22.9347 11.754 22.9331C10.8888 22.9199 10.0394 23.1659 9.31487 23.6395C8.56266 24.1538 7.95 24.8472 7.53197 25.6573C7.00825 26.6601 6.64246 27.7378 6.44762 28.8524C6.19149 30.2447 6.06942 31.6584 6.08306 33.0741C6.08489 34.0266 6.13671 34.9784 6.23831 35.9254C6.3418 36.908 6.48763 37.8867 6.6758 38.8615C6.86397 39.8363 7.08663 40.7969 7.34379 41.7434C7.56489 42.5581 7.8001 43.3296 8.04943 44.0579C8.48927 44.3617 8.94324 44.6513 9.41367 44.9197C12.3711 46.593 15.7236 47.4288 19.4713 47.4272Z" fill="#4D22C5"/>
<path d="M34.9781 12.6928H3.98262C2.94046 12.679 1.93548 13.0799 1.18864 13.8075C0.4418 14.5351 0.0142542 15.5298 0 16.5728V27.3227C0 31.2608 0.835113 34.7562 2.50533 37.809C3.16164 39.0228 3.95062 40.1598 4.85774 41.1992L4.80832 40.9992C4.47053 39.5636 4.21295 38.1102 4.03675 36.646C3.85736 35.1916 3.76622 33.7276 3.76387 32.2621C3.74567 30.5756 3.91371 28.8922 4.26493 27.2426C4.53895 25.9096 5.04368 24.6348 5.75635 23.4757C6.36857 22.4919 7.21371 21.6744 8.21697 21.0955C9.2651 20.5196 10.4467 20.2312 11.6421 20.2597C12.8437 20.2376 14.0244 20.5762 15.0319 21.232C16.0813 21.9511 16.9573 22.8954 17.5961 23.996C18.3972 25.3547 19.021 26.8106 19.4521 28.328C19.9988 30.1887 20.4309 32.0813 20.7459 33.995C21.1019 36.0825 21.3937 38.3403 21.6211 40.7684C21.8187 42.845 21.9865 45.0165 22.1245 47.2829C24.7296 47.0057 27.2505 46.1981 29.5322 44.9097L29.5934 44.8721C29.664 44.7284 29.7345 44.5848 29.7981 44.4318C30.1518 43.5861 30.4274 42.7098 30.6214 41.8138C30.8357 40.8366 30.9858 39.8464 31.0707 38.8496C31.1601 37.8121 31.2048 36.7715 31.2048 35.7277C31.212 34.4448 31.1429 33.1625 30.9978 31.8878C30.87 30.7984 30.6783 29.7174 30.4238 28.6505C30.1823 27.6507 29.9008 26.6909 29.5793 25.7712C29.2578 24.8514 28.9175 23.9262 28.5583 22.9954H31.6023C32.1183 24.9291 32.5668 26.9923 32.9479 29.185C33.3394 31.491 33.5315 33.8266 33.5219 36.1657C33.5328 38.1269 33.3548 40.0845 32.9903 42.0115C32.9621 42.1551 32.9291 42.2964 32.8985 42.4376C34.326 41.0958 35.5285 39.533 36.4601 37.809C38.1303 34.7562 38.9654 31.2608 38.9654 27.3227V16.568C38.9499 15.525 38.5212 14.5309 37.7734 13.8042C37.0257 13.0774 36.0202 12.6777 34.9781 12.6928Z" fill="#4D22C5"/>
</svg>
