<svg width="203" height="48" viewBox="0 0 203 48" fill="none" xmlns="http://www.w3.org/2000/svg">
    <path d="M30.8164 11.3699H28.6997C28.7191 10.1638 28.4984 8.96592 28.0506 7.846C27.6028 6.72609 26.9367 5.70658 26.0912 4.8468C25.2458 3.98702 24.2377 3.30417 23.1259 2.83808C22.0141 2.37199 20.8208 2.13197 19.6153 2.13197C18.4099 2.13197 17.2165 2.37199 16.1047 2.83808C14.9929 3.30417 13.9849 3.98702 13.1394 4.8468C12.2939 5.70658 11.6279 6.72609 11.1801 7.846C10.7323 8.96592 10.5116 10.1638 10.531 11.3699H8.41426C8.39275 9.88462 8.66653 8.40989 9.21967 7.0314C9.7728 5.65292 10.5942 4.39818 11.6363 3.34022C12.6783 2.28226 13.9201 1.44216 15.2895 0.868726C16.6589 0.295298 18.1285 0 19.613 0C21.0974 0 22.5671 0.295298 23.9365 0.868726C25.3058 1.44216 26.5476 2.28226 27.5897 3.34022C28.6317 4.39818 29.4532 5.65292 30.0063 7.0314C30.5594 8.40989 30.8332 9.88462 30.8117 11.3699H30.8164Z" fill="#4D22C5"/>
    <path d="M19.4713 47.4272H19.8077C19.563 43.3084 19.2283 39.7578 18.8033 36.7754C18.3439 33.5497 17.7809 30.9134 17.1145 28.8666C16.4481 26.8197 15.6695 25.3191 14.7788 24.3647C13.8882 23.4119 12.8799 22.9347 11.754 22.9331C10.8888 22.9199 10.0394 23.1659 9.31487 23.6395C8.56266 24.1538 7.95 24.8472 7.53197 25.6573C7.00825 26.6601 6.64246 27.7378 6.44762 28.8524C6.19149 30.2447 6.06942 31.6584 6.08306 33.0741C6.08489 34.0266 6.13671 34.9784 6.23831 35.9254C6.3418 36.908 6.48763 37.8867 6.6758 38.8615C6.86397 39.8363 7.08663 40.7969 7.34379 41.7434C7.56489 42.5581 7.8001 43.3296 8.04943 44.0579C8.48927 44.3617 8.94324 44.6513 9.41367 44.9197C12.3711 46.593 15.7236 47.4288 19.4713 47.4272Z" fill="#4D22C5"/>
    <path d="M34.9781 12.6928H3.98262C2.94046 12.679 1.93548 13.0799 1.18864 13.8075C0.4418 14.5351 0.0142542 15.5298 0 16.5728V27.3227C0 31.2608 0.835113 34.7562 2.50533 37.809C3.16164 39.0228 3.95062 40.1598 4.85774 41.1992L4.80832 40.9992C4.47053 39.5636 4.21295 38.1102 4.03675 36.646C3.85736 35.1916 3.76622 33.7276 3.76387 32.2621C3.74567 30.5756 3.91371 28.8922 4.26493 27.2426C4.53895 25.9096 5.04368 24.6348 5.75635 23.4757C6.36857 22.4919 7.21371 21.6744 8.21697 21.0955C9.2651 20.5196 10.4467 20.2312 11.6421 20.2597C12.8437 20.2376 14.0244 20.5762 15.0319 21.232C16.0813 21.9511 16.9573 22.8954 17.5961 23.996C18.3972 25.3547 19.021 26.8106 19.4521 28.328C19.9988 30.1887 20.4309 32.0813 20.7459 33.995C21.1019 36.0825 21.3937 38.3403 21.6211 40.7684C21.8187 42.845 21.9865 45.0165 22.1245 47.2829C24.7296 47.0057 27.2505 46.1981 29.5322 44.9097L29.5934 44.8721C29.664 44.7284 29.7345 44.5848 29.7981 44.4318C30.1518 43.5861 30.4274 42.7098 30.6214 41.8138C30.8357 40.8366 30.9858 39.8464 31.0707 38.8496C31.1601 37.8121 31.2048 36.7715 31.2048 35.7277C31.212 34.4448 31.1429 33.1625 30.9978 31.8878C30.87 30.7984 30.6783 29.7174 30.4238 28.6505C30.1823 27.6507 29.9008 26.6909 29.5793 25.7712C29.2578 24.8514 28.9175 23.9262 28.5583 22.9954H31.6023C32.1183 24.9291 32.5668 26.9923 32.9479 29.185C33.3394 31.491 33.5315 33.8266 33.5219 36.1657C33.5328 38.1269 33.3548 40.0845 32.9903 42.0115C32.9621 42.1551 32.9291 42.2964 32.8985 42.4376C34.326 41.0958 35.5285 39.533 36.4601 37.809C38.1303 34.7562 38.9654 31.2608 38.9654 27.3227V16.568C38.9499 15.525 38.5212 14.5309 37.7734 13.8042C37.0257 13.0774 36.0202 12.6777 34.9781 12.6928Z" fill="#4D22C5"/>
    <path d="M71.2722 4.03809V37.2223H69.0821V31.7222C68.2218 33.4723 66.8696 34.9332 65.1913 35.9256C63.4682 36.9238 61.506 37.4339 59.5151 37.4012C57.4482 37.4298 55.4112 36.9049 53.6154 35.8809C51.8757 34.8883 50.4444 33.4335 49.4799 31.6775C48.4595 29.8019 47.9432 27.6935 47.9815 25.5584C47.9441 23.4137 48.4602 21.2957 49.4799 19.4088C50.4364 17.6468 51.8696 16.1901 53.6154 15.2054C55.4156 14.1944 57.4508 13.6772 59.5151 13.7062C61.4849 13.6753 63.4255 14.1857 65.1255 15.1818C66.7814 16.1681 68.134 17.5914 69.0351 19.2957V4.04751L71.2722 4.03809ZM64.4504 34.1345C65.8653 33.3002 67.0247 32.094 67.8025 30.6467C68.6095 29.0687 69.0303 27.3215 69.0303 25.549C69.0303 23.7765 68.6095 22.0293 67.8025 20.4513C67.0241 19.0039 65.8649 17.797 64.4504 16.9611C62.9815 16.1401 61.327 15.7091 59.6445 15.7091C57.962 15.7091 56.3074 16.1401 54.8386 16.9611C53.423 17.7956 52.2635 19.0029 51.4865 20.4513C50.6794 22.0293 50.2586 23.7765 50.2586 25.549C50.2586 27.3215 50.6794 29.0687 51.4865 30.6467C52.2629 32.095 53.4226 33.3016 54.8386 34.1345C56.3074 34.9555 57.962 35.3865 59.6445 35.3865C61.327 35.3865 62.9815 34.9555 64.4504 34.1345Z" fill="#4D22C5"/>
    <path d="M93.898 15.8954C95.4469 17.3706 96.2221 19.5403 96.2237 22.4045V37.2002H94.0745V33.0405C93.3317 34.4102 92.1941 35.5249 90.8096 36.2397C89.3784 37.0008 87.6639 37.3807 85.6662 37.3791C83.0721 37.3791 81.0218 36.7678 79.5153 35.5452C78.0087 34.3226 77.2562 32.7124 77.2578 30.7146C77.2578 28.7779 77.9507 27.2085 79.3364 26.0063C80.7221 24.8041 82.9363 24.2007 85.9792 24.196H93.9827V22.3127C93.9827 20.1359 93.3935 18.4802 92.2149 17.3455C91.0364 16.2108 89.3101 15.6443 87.0362 15.6458C85.5157 15.6403 84.0071 15.9132 82.5848 16.451C81.2605 16.9333 80.0393 17.6617 78.9856 18.5979L77.8675 16.9877C79.095 15.9068 80.5236 15.0789 82.0717 14.5512C83.7234 13.9674 85.4632 13.672 87.2151 13.6778C90.1199 13.6794 92.3475 14.4186 93.898 15.8954ZM90.9226 34.2128C92.3202 33.2631 93.3893 31.9037 93.9827 30.3214V25.938H86.0193C83.7249 25.938 82.0623 26.3555 81.0312 27.1904C80.0002 28.0254 79.4862 29.1734 79.4894 30.6346C79.4894 32.1553 80.0559 33.3559 81.1889 34.2363C82.322 35.1168 83.9172 35.5562 85.9746 35.5546C87.9158 35.5531 89.5651 35.1058 90.9226 34.2128Z" fill="#4D22C5"/>
    <path d="M139.989 16.237C141.643 17.937 142.47 20.3833 142.472 23.576V37.2108H140.236V23.7455C140.236 21.1211 139.595 19.1221 138.312 17.7487C137.028 16.3752 135.24 15.6893 132.947 15.6908C130.322 15.6908 128.243 16.511 126.709 18.1513C125.174 19.7916 124.407 21.9993 124.407 24.7744V37.2108H122.172V23.7455C122.172 21.1211 121.531 19.1221 120.249 17.7487C118.968 16.3752 117.179 15.6893 114.882 15.6908C112.258 15.6908 110.179 16.511 108.646 18.1513C107.114 19.7916 106.346 21.9993 106.343 24.7744V37.2108H104.107V13.8567H106.249V18.867C106.986 17.2679 108.196 15.9334 109.715 15.0433C111.249 14.1329 113.074 13.6777 115.19 13.6777C117.307 13.6777 119.103 14.1549 120.579 15.1092C122.054 16.0651 123.105 17.4669 123.732 19.3144C124.494 17.5999 125.766 16.1625 127.375 15.1987C129.031 14.1863 130.961 13.6793 133.166 13.6777C136.061 13.684 138.336 14.5371 139.989 16.237Z" fill="#4D22C5"/>
    <path d="M170.111 26.0765H150.018C150.045 27.7869 150.524 29.4599 151.405 30.9264C152.249 32.3276 153.466 33.4679 154.919 34.2209C156.46 35.0121 158.174 35.4114 159.907 35.3833C161.361 35.3985 162.803 35.1175 164.145 34.5574C165.413 34.027 166.529 33.189 167.391 32.1195L168.688 33.5949C167.66 34.8314 166.347 35.8003 164.861 36.4187C163.066 37.1494 161.133 37.4799 159.197 37.3873C157.261 37.2946 155.369 36.7809 153.652 35.8822C151.865 34.9031 150.386 33.4483 149.377 31.6794C148.329 29.8128 147.797 27.7012 147.835 25.5612C147.801 23.4371 148.301 21.3384 149.288 19.457C150.206 17.7035 151.592 16.2376 153.291 15.2213C155.032 14.2287 157.001 13.7049 159.005 13.7012C161.01 13.6975 162.98 14.214 164.725 15.2001C166.412 16.2 167.79 17.6463 168.707 19.3793C169.697 21.252 170.198 23.3445 170.162 25.4623L170.111 26.0765ZM154.582 16.7532C153.272 17.4802 152.182 18.5458 151.426 19.8382C150.623 21.2078 150.156 22.748 150.063 24.3328H167.961C167.898 22.7532 167.436 21.2151 166.618 19.8618C165.831 18.5552 164.713 17.4789 163.378 16.7411C162.042 16.0034 160.535 15.6301 159.009 15.6589C157.464 15.6346 155.938 16.0117 154.582 16.7532Z" fill="#4D22C5"/>
    <path d="M176.283 36.5406C174.584 35.9756 173.258 35.26 172.304 34.3937L173.332 32.6046C174.431 33.4902 175.68 34.1719 177.02 34.6173C178.534 35.1556 180.13 35.428 181.738 35.4224C184.091 35.4224 185.827 35.0348 186.948 34.2595C187.48 33.9119 187.914 33.433 188.208 32.869C188.502 32.305 188.646 31.6748 188.625 31.0391C188.625 30.0551 188.317 29.2806 187.708 28.7133C187.061 28.1268 186.288 27.6982 185.449 27.4609C184.554 27.1926 183.317 26.9093 181.738 26.6111C180.223 26.3641 178.728 26.0053 177.267 25.5376C176.156 25.1627 175.157 24.5152 174.36 23.6543C173.556 22.788 173.153 21.5945 173.153 20.0738C173.153 18.225 173.92 16.6972 175.455 15.4904C176.989 14.2835 179.173 13.6793 182.006 13.6777C183.503 13.6791 184.993 13.8898 186.432 14.3039C187.714 14.6361 188.926 15.1941 190.011 15.9518L188.981 17.7409C187.99 17.037 186.886 16.5075 185.717 16.1754C184.494 15.8169 183.226 15.6361 181.952 15.6386C179.776 15.6386 178.136 16.0412 177.034 16.8463C176.516 17.1965 176.095 17.6704 175.807 18.225C175.519 18.7796 175.375 19.3973 175.386 20.022C175.386 21.0672 175.7 21.8801 176.328 22.4608C176.987 23.0616 177.774 23.5051 178.629 23.7579C179.539 24.0435 180.814 24.3496 182.453 24.676C183.944 24.9241 185.416 25.2749 186.858 25.7259C187.943 26.079 188.921 26.7028 189.699 27.5386C190.472 28.3751 190.859 29.5231 190.861 30.9826C190.861 32.9224 190.055 34.473 188.444 35.6343C186.833 36.7957 184.568 37.3771 181.648 37.3787C179.826 37.3916 178.014 37.1086 176.283 36.5406Z" fill="#4D22C5"/>
    <path d="M52.6847 44.8071C52.7855 44.9023 52.8658 45.0172 52.9207 45.1447C52.9756 45.2721 53.0039 45.4095 53.0039 45.5484C53.0039 45.6872 52.9756 45.8246 52.9207 45.9521C52.8658 46.0795 52.7855 46.1944 52.6847 46.2896C52.4316 46.4802 52.1192 46.5745 51.8033 46.5559H51.0112V47.4987H50.6963V44.5455H51.7986C52.1158 44.5223 52.4306 44.6153 52.6847 44.8071ZM52.4637 46.0916C52.5417 46.0253 52.6034 45.942 52.6441 45.848C52.6849 45.754 52.7036 45.6519 52.6988 45.5495C52.7045 45.4457 52.6863 45.3419 52.6456 45.2462C52.6048 45.1506 52.5426 45.0657 52.4637 44.998C52.2692 44.8587 52.0325 44.7912 51.7939 44.8071H51.0112V46.2825H51.7939C52.0325 46.2985 52.2692 46.231 52.4637 46.0916Z" fill="black"/>
    <path d="M56.9656 47.4845L56.2902 46.5414C56.2121 46.551 56.1335 46.5558 56.0549 46.5555H55.2642V47.4987H54.9512V44.5444H56.0549C56.3728 44.5253 56.6869 44.6216 56.9397 44.8156C57.0464 44.9065 57.1307 45.0207 57.1862 45.1495C57.2417 45.2783 57.2669 45.4181 57.2598 45.5582C57.2697 45.7664 57.2084 45.9717 57.086 46.1402C56.9636 46.3087 56.7875 46.4303 56.5867 46.4848L57.3069 47.4987L56.9656 47.4845ZM56.7162 46.0864C56.7947 46.0204 56.8567 45.9371 56.8976 45.843C56.9384 45.7489 56.9569 45.6465 56.9515 45.5441C56.9576 45.4401 56.9396 45.3362 56.8987 45.2404C56.8579 45.1447 56.7954 45.0598 56.7162 44.9924C56.5225 44.8526 56.286 44.785 56.0478 44.8014H55.2642V46.2821H56.0478C56.2867 46.2981 56.5235 46.2287 56.7162 46.0864Z" fill="black"/>
    <path d="M59.7461 47.3243C59.5143 47.2003 59.3216 47.0142 59.1896 46.7869C59.0582 46.5525 58.9893 46.2884 58.9893 46.0198C58.9893 45.7512 59.0582 45.487 59.1896 45.2526C59.3216 45.0253 59.5143 44.8392 59.7461 44.7153C59.9907 44.5861 60.2631 44.5186 60.5397 44.5186C60.8163 44.5186 61.0887 44.5861 61.3332 44.7153C61.5633 44.8409 61.7549 45.0266 61.8874 45.2526C62.0203 45.4874 62.0901 45.7525 62.0901 46.0222C62.0901 46.2918 62.0203 46.5569 61.8874 46.7916C61.7549 47.0176 61.5633 47.2034 61.3332 47.329C61.0882 47.4566 60.816 47.5233 60.5397 47.5233C60.2634 47.5233 59.9912 47.4566 59.7461 47.329V47.3243ZM61.1752 47.0886C61.3612 46.9868 61.5148 46.8349 61.6186 46.6502C61.7239 46.4584 61.779 46.2433 61.779 46.0245C61.779 45.8058 61.7239 45.5906 61.6186 45.3988C61.5148 45.2141 61.3612 45.0621 61.1752 44.9604C60.9799 44.8568 60.762 44.8026 60.5409 44.8026C60.3197 44.8026 60.1019 44.8568 59.9065 44.9604C59.7188 45.0613 59.5634 45.2133 59.4585 45.3988C59.3517 45.5901 59.2956 45.8055 59.2956 46.0245C59.2956 46.2436 59.3517 46.4589 59.4585 46.6502C59.5634 46.8356 59.7188 46.9876 59.9065 47.0886C60.1019 47.1922 60.3197 47.2464 60.5409 47.2464C60.762 47.2464 60.9799 47.1922 61.1752 47.0886Z" fill="black"/>
    <path d="M64.0615 44.5423H65.2553C65.5396 44.5368 65.8209 44.6011 66.0746 44.7295C66.3049 44.8468 66.4972 45.0269 66.6293 45.249C66.7582 45.4813 66.8259 45.7427 66.8259 46.0083C66.8259 46.274 66.7582 46.5353 66.6293 46.7676C66.4972 46.9897 66.3049 47.1698 66.0746 47.2871C65.8209 47.4155 65.5396 47.4798 65.2553 47.4743H64.0615V44.5423ZM65.2319 47.2052C65.4664 47.21 65.6985 47.1578 65.9084 47.0531C66.0943 46.9567 66.2492 46.81 66.3555 46.6296C66.46 46.4392 66.5147 46.2255 66.5147 46.0083C66.5147 45.7912 66.46 45.5775 66.3555 45.3871C66.2492 45.2067 66.0943 45.0599 65.9084 44.9635C65.6989 44.8578 65.4665 44.8055 65.2319 44.8114H64.3658V47.2052H65.2319Z" fill="black"/>
    <path d="M69.0951 47.1733C68.9817 47.0437 68.8951 46.893 68.8403 46.7299C68.7855 46.5668 68.7636 46.3945 68.7757 46.2229V44.542H69.0857V46.2088C69.0659 46.4835 69.1496 46.7557 69.3206 46.972C69.5063 47.1337 69.7445 47.2228 69.9911 47.2228C70.2377 47.2228 70.4759 47.1337 70.6616 46.972C70.8336 46.7562 70.9175 46.4837 70.8965 46.2088V44.542H71.1971V46.2229C71.2213 46.569 71.1073 46.9106 70.88 47.1733C70.6318 47.3833 70.3167 47.4987 69.9911 47.4987C69.6655 47.4987 69.3505 47.3833 69.1022 47.1733H69.0951Z" fill="black"/>
    <path d="M73.9165 44.8112H72.8828V44.542H75.2626V44.8112H74.2289V47.4746H73.9165V44.8112Z" fill="black"/>
    <path d="M77.462 47.3243C77.2301 47.2003 77.0374 47.0142 76.9054 46.7869C76.7741 46.5525 76.7051 46.2884 76.7051 46.0198C76.7051 45.7512 76.7741 45.487 76.9054 45.2526C77.0374 45.0253 77.2301 44.8392 77.462 44.7153C77.7065 44.5861 77.9789 44.5186 78.2555 44.5186C78.5321 44.5186 78.8045 44.5861 79.049 44.7153C79.2796 44.8402 79.4714 45.0261 79.6032 45.2526C79.7361 45.4874 79.806 45.7525 79.806 46.0222C79.806 46.2918 79.7361 46.5569 79.6032 46.7916C79.4714 47.0182 79.2796 47.2041 79.049 47.329C78.804 47.4566 78.5318 47.5233 78.2555 47.5233C77.9792 47.5233 77.707 47.4566 77.462 47.329V47.3243ZM78.8911 47.0886C79.077 46.9868 79.2306 46.8349 79.3344 46.6502C79.4397 46.4584 79.4949 46.2433 79.4949 46.0245C79.4949 45.8058 79.4397 45.5906 79.3344 45.3988C79.2306 45.2141 79.077 45.0621 78.8911 44.9604C78.6957 44.8568 78.4779 44.8026 78.2567 44.8026C78.0355 44.8026 77.8177 44.8568 77.6223 44.9604C77.4352 45.0614 77.2807 45.2134 77.1766 45.3988C77.0699 45.5901 77.0138 45.8055 77.0138 46.0245C77.0138 46.2436 77.0699 46.4589 77.1766 46.6502C77.2807 46.8356 77.4352 46.9876 77.6223 47.0886C77.8177 47.1922 78.0355 47.2464 78.2567 47.2464C78.4779 47.2464 78.6957 47.1922 78.8911 47.0886Z" fill="black"/>
    <path d="M81.9575 47.4119C81.781 47.3587 81.62 47.2632 81.4883 47.1337L81.6103 46.8979C81.7314 47.0143 81.8763 47.1028 82.0349 47.1572C82.2089 47.223 82.3933 47.2565 82.5792 47.2562C82.7866 47.2707 82.9933 47.2196 83.1704 47.1101C83.232 47.0686 83.2824 47.0124 83.3172 46.9466C83.352 46.8808 83.3701 46.8074 83.3699 46.7329C83.3719 46.6808 83.3634 46.6289 83.3448 46.5803C83.3263 46.5317 83.2981 46.4873 83.2619 46.45C83.1874 46.3769 83.0977 46.3214 82.9992 46.2873C82.8576 46.2379 82.7135 46.1962 82.5675 46.1624C82.3877 46.1187 82.2107 46.0644 82.0373 45.9997C81.9072 45.9501 81.7912 45.8691 81.6994 45.764C81.5999 45.6423 81.5497 45.4874 81.5586 45.3302C81.5574 45.1853 81.5991 45.0434 81.6783 44.9223C81.7664 44.7913 81.8914 44.6895 82.0373 44.63C82.229 44.5508 82.4353 44.513 82.6426 44.5192C82.8093 44.5189 82.9753 44.5427 83.1353 44.59C83.2836 44.631 83.4246 44.6954 83.5528 44.7809L83.4496 45.0308C83.3278 44.9491 83.194 44.8871 83.0531 44.8469C82.9198 44.8073 82.7816 44.7866 82.6426 44.7856C82.4374 44.7704 82.233 44.8235 82.0607 44.9365C82.0002 44.9804 81.951 45.0381 81.9171 45.1049C81.8832 45.1717 81.8657 45.2457 81.866 45.3207C81.8632 45.3732 81.8714 45.4257 81.89 45.4748C81.9086 45.5239 81.9371 45.5686 81.9739 45.606C82.0488 45.6815 82.1405 45.738 82.2414 45.771C82.3493 45.8087 82.4948 45.8512 82.6754 45.896C82.853 45.9371 83.0278 45.9899 83.1986 46.054C83.3289 46.1031 83.4451 46.1841 83.5364 46.2897C83.6337 46.4106 83.683 46.5634 83.6749 46.7187C83.676 46.8628 83.6344 47.0041 83.5552 47.1243C83.4643 47.2556 83.337 47.3572 83.1892 47.4166C82.995 47.4925 82.7875 47.5285 82.5792 47.5227C82.3673 47.5204 82.1573 47.4829 81.9575 47.4119Z" fill="black"/>
    <path d="M89.9662 44.8068C90.0672 44.902 90.1477 45.0169 90.2028 45.1444C90.2578 45.2718 90.2862 45.4092 90.2862 45.5481C90.2862 45.687 90.2578 45.8244 90.2028 45.9519C90.1477 46.0794 90.0672 46.1942 89.9662 46.2895C89.7115 46.4797 89.398 46.5739 89.0807 46.5558H88.2894V47.4987H87.9785V44.5451H89.0807C89.3977 44.5233 89.7119 44.6162 89.9662 44.8068ZM89.7307 46.0914C89.8045 46.0208 89.8633 45.9359 89.9034 45.8419C89.9436 45.7479 89.9642 45.6468 89.9642 45.5445C89.9642 45.4423 89.9436 45.3412 89.9034 45.2472C89.8633 45.1532 89.8045 45.0684 89.7307 44.9977C89.5368 44.858 89.3003 44.7904 89.0619 44.8068H88.2776V46.2824H89.0619C89.3042 46.3016 89.5455 46.2339 89.7425 46.0914H89.7307Z" fill="black"/>
    <path d="M93.9349 46.6906H92.2866L91.9334 47.4746H91.6084L92.9577 44.542H93.2638L94.6131 47.4746H94.2835L93.9349 46.6906ZM93.8219 46.4401L93.1155 44.865L92.409 46.4401H93.8219Z" fill="black"/>
    <path d="M98.3711 47.4845L97.7042 46.5414C97.6269 46.551 97.549 46.5558 97.471 46.5555H96.6876V47.4987H96.3682V44.5444H97.4617C97.7767 44.5253 98.0879 44.6216 98.3384 44.8156C98.4436 44.9068 98.5269 45.0211 98.5819 45.1498C98.6368 45.2785 98.662 45.4182 98.6556 45.5582C98.6644 45.7665 98.603 45.9716 98.4814 46.14C98.3598 46.3084 98.1852 46.4299 97.9863 46.4848L98.6998 47.4987L98.3711 47.4845ZM98.1379 46.0864C98.2154 46.0202 98.2767 45.9368 98.3171 45.8428C98.3576 45.7487 98.376 45.6465 98.3711 45.5441C98.3768 45.4402 98.3587 45.3363 98.3183 45.2406C98.2778 45.145 98.2161 45.06 98.1379 44.9924C97.9449 44.853 97.7101 44.7855 97.4734 44.8014H96.6993V46.2821H97.4734C97.7068 46.2951 97.9375 46.2259 98.1263 46.0864H98.1379Z" fill="black"/>
    <path d="M102.517 46.6906H100.869L100.515 47.4746H100.19L101.54 44.542H101.846L103.195 47.4746H102.866L102.517 46.6906ZM102.404 46.4401L101.698 44.865L100.991 46.4401H102.404Z" fill="black"/>
    <path d="M107.821 47.3243C107.589 47.2003 107.397 47.0142 107.265 46.7869C107.133 46.5525 107.064 46.2884 107.064 46.0198C107.064 45.7512 107.133 45.487 107.265 45.2526C107.397 45.0253 107.589 44.8392 107.821 44.7153C108.066 44.5861 108.338 44.5186 108.615 44.5186C108.891 44.5186 109.164 44.5861 109.408 44.7153C109.639 44.8409 109.83 45.0266 109.963 45.2526C110.096 45.4874 110.165 45.7525 110.165 46.0222C110.165 46.2918 110.096 46.5569 109.963 46.7916C109.83 47.0176 109.639 47.2034 109.408 47.329C109.163 47.4566 108.891 47.5233 108.615 47.5233C108.339 47.5233 108.066 47.4566 107.821 47.329V47.3243ZM109.25 47.0886C109.436 46.9874 109.589 46.8353 109.691 46.6502C109.797 46.4584 109.852 46.2433 109.852 46.0245C109.852 45.8058 109.797 45.5906 109.691 45.3988C109.589 45.2137 109.436 45.0616 109.25 44.9604C109.055 44.8568 108.837 44.8026 108.616 44.8026C108.395 44.8026 108.177 44.8568 107.982 44.9604C107.794 45.0613 107.639 45.2133 107.534 45.3988C107.427 45.5901 107.371 45.8055 107.371 46.0245C107.371 46.2436 107.427 46.4589 107.534 46.6502C107.639 46.8356 107.794 46.9876 107.982 47.0886C108.177 47.1922 108.395 47.2464 108.616 47.2464C108.837 47.2464 109.055 47.1922 109.25 47.0886Z" fill="black"/>
    <path d="M114.673 47.4119C114.497 47.3574 114.336 47.2621 114.204 47.1336L114.326 46.8979C114.447 47.0138 114.592 47.1023 114.75 47.1572C114.925 47.223 115.11 47.2565 115.296 47.2562C115.503 47.2706 115.71 47.2196 115.887 47.1101C115.948 47.0684 115.998 47.0122 116.032 46.9464C116.067 46.8806 116.084 46.8072 116.084 46.7329C116.086 46.6808 116.078 46.6287 116.059 46.58C116.041 46.5313 116.012 46.487 115.976 46.45C115.901 46.3769 115.812 46.3213 115.713 46.2873C115.572 46.2378 115.428 46.1961 115.282 46.1624C115.103 46.1187 114.927 46.0644 114.755 45.9997C114.625 45.95 114.509 45.8691 114.417 45.7639C114.318 45.6422 114.268 45.4874 114.277 45.3301C114.275 45.1855 114.315 45.0435 114.394 44.9223C114.483 44.7911 114.608 44.6894 114.755 44.63C114.946 44.551 115.151 44.5132 115.357 44.5192C115.524 44.519 115.691 44.5428 115.852 44.5899C115.999 44.6319 116.14 44.6963 116.269 44.7808L116.163 45.0307C116.042 44.9496 115.909 44.8876 115.77 44.8468C115.636 44.8072 115.497 44.7866 115.357 44.7855C115.153 44.7709 114.95 44.8239 114.778 44.9365C114.717 44.9801 114.668 45.0377 114.633 45.1045C114.599 45.1714 114.581 45.2455 114.581 45.3207C114.579 45.3731 114.588 45.4255 114.606 45.4745C114.625 45.5235 114.653 45.5683 114.689 45.606C114.764 45.6814 114.856 45.738 114.956 45.771C115.064 45.8087 115.209 45.8511 115.392 45.8959C115.569 45.9366 115.743 45.9894 115.913 46.0539C116.043 46.1031 116.159 46.1841 116.25 46.2897C116.349 46.4098 116.399 46.563 116.391 46.7187C116.392 46.8628 116.35 47.0041 116.271 47.1243C116.179 47.2551 116.051 47.3565 115.903 47.4166C115.71 47.4925 115.504 47.5286 115.296 47.5227C115.084 47.5205 114.873 47.4831 114.673 47.4119Z" fill="black"/>
    <path d="M120.43 47.2055V47.4746H118.339V44.542H120.369V44.8112H118.655V45.8527H120.182V46.1171H118.655V47.2055H120.43Z" fill="black"/>
    <path d="M122.721 47.1731C122.494 46.9107 122.38 46.5692 122.403 46.2228V44.542H122.721V46.2087C122.702 46.4834 122.785 46.7555 122.955 46.9718C123.14 47.1335 123.377 47.2226 123.622 47.2226C123.868 47.2226 124.105 47.1335 124.29 46.9718C124.46 46.7555 124.543 46.4834 124.523 46.2087V44.542H124.825V46.2228C124.849 46.5688 124.736 46.9104 124.509 47.1731C124.262 47.3833 123.948 47.4987 123.624 47.4987C123.299 47.4987 122.985 47.3833 122.738 47.1731H122.721Z" fill="black"/>
    <path d="M129.561 47.4307C129.378 47.3823 129.207 47.295 129.06 47.1747L129.247 46.7519C129.382 46.8533 129.531 46.9326 129.69 46.9868C129.86 47.0449 130.039 47.075 130.218 47.076C130.387 47.0862 130.556 47.0505 130.706 46.9727C130.755 46.9445 130.796 46.9038 130.825 46.8547C130.853 46.8056 130.868 46.7499 130.868 46.6932C130.869 46.6543 130.861 46.6158 130.846 46.5801C130.83 46.5445 130.807 46.5125 130.779 46.4864C130.71 46.4281 130.63 46.3843 130.544 46.3573C130.453 46.3268 130.326 46.2915 130.167 46.2539C129.982 46.2112 129.801 46.1579 129.622 46.0942C129.485 46.0409 129.362 45.9546 129.266 45.8429C129.159 45.7106 129.107 45.5428 129.118 45.3731C129.117 45.2161 129.163 45.0623 129.25 44.9316C129.349 44.789 129.488 44.6781 129.648 44.6121C129.855 44.529 130.077 44.489 130.3 44.4947C130.479 44.4948 130.657 44.5177 130.83 44.5628C130.99 44.6007 131.141 44.6658 131.278 44.7554L131.107 45.1806C130.981 45.1056 130.845 45.0479 130.704 45.009C130.571 44.9705 130.434 44.9507 130.296 44.9503C130.132 44.94 129.969 44.9776 129.827 45.0584C129.777 45.0892 129.737 45.1323 129.71 45.1833C129.682 45.2343 129.668 45.2917 129.669 45.3497C129.668 45.3882 129.675 45.4267 129.691 45.4621C129.706 45.4974 129.729 45.5288 129.759 45.554C129.827 45.6124 129.907 45.6556 129.993 45.6808C130.085 45.7114 130.211 45.7466 130.371 45.7865C130.553 45.8251 130.733 45.8777 130.908 45.9439C131.045 45.9975 131.168 46.0827 131.267 46.1928C131.37 46.3203 131.423 46.482 131.414 46.6462C131.416 46.8033 131.37 46.9572 131.283 47.0877C131.182 47.229 131.043 47.3383 130.882 47.4025C130.675 47.4877 130.452 47.5285 130.228 47.5223C130.002 47.5262 129.778 47.4953 129.561 47.4307Z" fill="black"/>
    <path d="M135.114 46.7959H133.641L133.35 47.4746H132.785L134.112 44.542H134.651L135.982 47.4746H135.415L135.114 46.7959ZM134.945 46.3793L134.39 45.0991L133.837 46.3793H134.945Z" fill="black"/>
    <path d="M137.617 44.542H138.164V47.0278H139.708V47.4987H137.617V44.542Z" fill="black"/>
    <path d="M143.334 46.7933H141.86L141.571 47.4751H141.006L142.331 44.5289H142.87L144.203 47.4751H143.631L143.334 46.7933ZM142.722 44.2468C142.656 44.2099 142.592 44.1682 142.531 44.1222C142.495 44.0925 142.458 44.0651 142.418 44.0399C142.393 44.0222 142.362 44.0124 142.331 44.0117C142.304 44.0112 142.276 44.0171 142.251 44.029C142.227 44.0408 142.205 44.0582 142.188 44.0799C142.146 44.1329 142.125 44.1985 142.126 44.2656H141.844C141.839 44.1181 141.884 43.9731 141.971 43.8542C142.01 43.8053 142.06 43.766 142.117 43.7395C142.174 43.713 142.236 43.6999 142.298 43.7013C142.362 43.6997 142.425 43.7143 142.482 43.7436C142.548 43.7806 142.612 43.8222 142.673 43.8683C142.708 43.8985 142.746 43.9259 142.786 43.9505C142.811 43.9679 142.84 43.9777 142.87 43.9788C142.898 43.9795 142.925 43.9741 142.95 43.9632C142.976 43.9522 142.998 43.9359 143.016 43.9153C143.057 43.8656 143.079 43.8031 143.078 43.7389H143.36C143.362 43.8831 143.316 44.0238 143.228 44.1387C143.19 44.1874 143.141 44.2266 143.085 44.2527C143.029 44.2789 142.968 44.2913 142.906 44.2891C142.843 44.2943 142.78 44.2838 142.722 44.2586V44.2468ZM143.153 46.363L142.597 45.0768L142.046 46.363H143.153Z" fill="black"/>
    <path d="M146.372 47.3254C146.136 47.2011 145.939 47.0141 145.802 46.785C145.668 46.5482 145.598 46.2807 145.598 46.0085C145.598 45.7364 145.668 45.4689 145.802 45.232C145.939 45.003 146.136 44.816 146.372 44.6916C146.622 44.5619 146.901 44.4941 147.183 44.4941C147.466 44.4941 147.744 44.5619 147.995 44.6916C148.23 44.8157 148.427 45.0018 148.564 45.2297C148.699 45.4665 148.771 45.7345 148.771 46.0073C148.771 46.2801 148.699 46.5482 148.564 46.785C148.428 47.0141 148.231 47.2011 147.995 47.3254C147.744 47.4552 147.466 47.5229 147.183 47.5229C146.901 47.5229 146.622 47.4552 146.372 47.3254ZM147.715 46.9096C147.87 46.8231 147.997 46.6954 148.084 46.5407C148.172 46.377 148.218 46.1942 148.218 46.0085C148.218 45.8228 148.172 45.64 148.084 45.4763C147.997 45.3216 147.87 45.194 147.715 45.1075C147.552 45.0197 147.369 44.9737 147.184 44.9737C146.999 44.9737 146.817 45.0197 146.654 45.1075C146.498 45.1928 146.369 45.3207 146.282 45.4763C146.194 45.64 146.148 45.8228 146.148 46.0085C146.148 46.1942 146.194 46.377 146.282 46.5407C146.369 46.6963 146.498 46.8242 146.654 46.9096C146.817 46.9974 146.999 47.0433 147.184 47.0433C147.369 47.0433 147.552 46.9974 147.715 46.9096Z" fill="black"/>
    <path d="M153.05 44.5424H154.332C154.62 44.5366 154.906 44.5992 155.166 44.7249C155.401 44.8379 155.598 45.0168 155.733 45.2396C155.865 45.4743 155.934 45.7391 155.934 46.0083C155.934 46.2776 155.865 46.5423 155.733 46.777C155.598 46.9998 155.401 47.1787 155.166 47.2917C154.906 47.4174 154.62 47.48 154.332 47.4743H153.05V44.5424ZM154.308 47.0133C154.504 47.0168 154.698 46.9744 154.875 46.8893C155.033 46.8124 155.164 46.6902 155.252 46.5383C155.339 46.3749 155.384 46.193 155.384 46.0083C155.384 45.8236 155.339 45.6417 155.252 45.4783C155.164 45.3265 155.033 45.2043 154.875 45.1273C154.698 45.0423 154.504 44.9998 154.308 45.0034H153.605V47.0133H154.308Z" fill="black"/>
    <path d="M159.996 47.0182V47.4746H157.784V44.542H159.935V44.9984H158.332V45.7614H159.742V46.2084H158.332V47.0182H159.996Z" fill="black"/>
    <path d="M166.775 46.2238C166.875 46.3598 166.926 46.526 166.918 46.6949C166.924 46.8103 166.899 46.9252 166.848 47.0286C166.796 47.1321 166.719 47.2207 166.624 47.286C166.366 47.4419 166.066 47.5151 165.765 47.4956H164.299V44.5446H165.68C165.963 44.527 166.245 44.5987 166.485 44.7495C166.576 44.812 166.649 44.8964 166.698 44.9948C166.748 45.0932 166.772 45.2024 166.768 45.3124C166.771 45.4481 166.736 45.582 166.666 45.6987C166.6 45.8102 166.504 45.9007 166.389 45.96C166.541 46.0062 166.676 46.0983 166.775 46.2238ZM164.847 44.9756V45.7881H165.621C165.775 45.7972 165.928 45.7612 166.062 45.6845C166.11 45.6501 166.149 45.6047 166.176 45.552C166.203 45.4994 166.217 45.4411 166.217 45.3819C166.217 45.3227 166.203 45.2643 166.176 45.2117C166.149 45.1591 166.11 45.1137 166.062 45.0792C165.929 45.0014 165.775 44.9653 165.621 44.9756H164.847ZM166.368 46.6383C166.368 46.3557 166.156 46.2144 165.732 46.2144H164.847V47.0646H165.732C166.156 47.0599 166.368 46.9186 166.368 46.6242V46.6383Z" fill="black"/>
    <path d="M170.957 47.0182V47.4746H168.77V44.542H170.899V44.9984H169.315V45.7614H170.712V46.2084H169.315V47.0182H170.957Z" fill="black"/>
    <path d="M172.833 44.542H173.382V47.0278H174.924V47.4987H172.833V44.542Z" fill="black"/>
    <path d="M178.842 47.0182V47.4746H176.631V44.542H178.783V44.9984H177.177V45.7614H178.59V46.2084H177.177V47.0182H178.842Z" fill="black"/>
    <path d="M183.001 47.0278V47.4987H180.477V47.1314L182.219 45.0128H180.507V44.542H182.956V44.9092L181.216 47.0278H183.001Z" fill="black"/>
    <path d="M186.677 46.7959H185.201L184.912 47.4746H184.347L185.674 44.542H186.214L187.544 47.4746H186.972L186.677 46.7959ZM186.487 46.3793L185.931 45.0991L185.378 46.3793H186.487Z" fill="black"/>
    <path d="M189.205 47.4002C189.172 47.3682 189.147 47.3295 189.13 47.2865C189.113 47.2436 189.105 47.1975 189.107 47.1512C189.103 47.1036 189.109 47.0557 189.124 47.0106C189.139 46.9654 189.163 46.9239 189.194 46.8888C189.226 46.8537 189.264 46.8256 189.307 46.8064C189.349 46.7872 189.395 46.7773 189.442 46.7773C189.489 46.7773 189.535 46.7872 189.577 46.8064C189.62 46.8256 189.658 46.8537 189.69 46.8888C189.721 46.9239 189.745 46.9654 189.76 47.0106C189.775 47.0557 189.781 47.1036 189.777 47.1512C189.779 47.1975 189.771 47.2436 189.754 47.2865C189.737 47.3295 189.712 47.3682 189.679 47.4002C189.615 47.4632 189.53 47.4985 189.442 47.4985C189.354 47.4985 189.269 47.4632 189.205 47.4002Z" fill="black"/>
    <path d="M201.087 17.4751L200.389 16.5015C200.311 16.5107 200.232 16.5154 200.153 16.5156H199.334V17.4751H199.01V14.4488H200.141C200.47 14.4289 200.795 14.5272 201.057 14.7256C201.167 14.8185 201.255 14.9354 201.313 15.0671C201.371 15.1989 201.397 15.3421 201.39 15.4857C201.4 15.6992 201.337 15.9098 201.21 16.0826C201.083 16.2553 200.9 16.38 200.692 16.4358L201.438 17.4751H201.087ZM200.829 16.0441C200.905 15.971 200.965 15.8837 201.007 15.7872C201.048 15.6907 201.069 15.587 201.069 15.4822C201.069 15.3774 201.048 15.2737 201.007 15.1772C200.965 15.0807 200.905 14.9934 200.829 14.9204C200.628 14.7786 200.383 14.7098 200.136 14.7256H199.325V16.2411H200.141C200.385 16.255 200.626 16.1854 200.825 16.0441H200.829Z" fill="black"/>
    <path d="M200.214 18.7496C199.662 18.7501 199.122 18.5869 198.664 18.2807C198.205 17.9745 197.847 17.539 197.636 17.0294C197.424 16.5198 197.369 15.9589 197.476 15.4178C197.584 14.8767 197.849 14.3797 198.24 13.9896C198.63 13.5995 199.127 13.3338 199.668 13.2263C200.209 13.1188 200.77 13.1742 201.279 13.3856C201.789 13.5969 202.224 13.9547 202.531 14.4136C202.837 14.8725 203 15.4119 203 15.9636C202.998 16.7021 202.704 17.41 202.182 17.9322C201.66 18.4544 200.952 18.7484 200.214 18.7496ZM200.214 13.4317C199.713 13.4317 199.223 13.5802 198.807 13.8584C198.391 14.1366 198.066 14.532 197.874 14.9947C197.683 15.4573 197.633 15.9664 197.73 16.4575C197.828 16.9487 198.069 17.3998 198.423 17.7539C198.777 18.108 199.229 18.3491 199.72 18.4468C200.211 18.5445 200.72 18.4944 201.183 18.3028C201.645 18.1111 202.041 17.7866 202.319 17.3703C202.597 16.9539 202.746 16.4644 202.746 15.9636C202.745 15.2925 202.478 14.6491 202.003 14.1748C201.528 13.7005 200.885 13.434 200.214 13.434V13.4317Z" fill="black"/>
</svg>
