<svg width="193" height="369" viewBox="0 0 193 369" fill="none" xmlns="http://www.w3.org/2000/svg">
    <path d="M240.935 87.3947H224.435C224.586 78.1241 222.866 68.9164 219.375 60.3082C215.884 51.7 210.692 43.8636 204.102 37.2549C197.511 30.6462 189.653 25.3975 180.987 21.8149C172.32 18.2323 163.017 16.3873 153.621 16.3873C144.224 16.3873 134.921 18.2323 126.255 21.8149C117.588 25.3975 109.73 30.6462 103.14 37.2549C96.5489 43.8636 91.357 51.7 87.8661 60.3082C84.3752 68.9164 82.6553 78.1241 82.8064 87.3947H66.306C66.1384 75.978 68.2725 64.6425 72.5843 54.0468C76.8961 43.4511 83.2995 33.8066 91.4223 25.6746C99.5452 17.5426 109.225 11.0851 119.9 6.67745C130.574 2.2698 142.031 0 153.602 0C165.174 0 176.63 2.2698 187.305 6.67745C197.979 11.0851 207.659 17.5426 215.782 25.6746C223.905 33.8066 230.308 43.4511 234.62 54.0468C238.932 64.6425 241.066 75.978 240.898 87.3947H240.935Z" fill="#4D22C5" fill-opacity="0.4"/>
    <path d="M272.891 98.7269H31.0716C22.9409 98.6188 15.1002 101.752 9.27353 107.437C3.44683 113.122 0.111208 120.894 0 129.043V213.039C0 243.809 6.51538 271.121 19.546 294.975C24.6665 304.459 30.8219 313.343 37.8991 321.465L37.5135 319.901C34.8781 308.684 32.8685 297.328 31.4939 285.887C30.0943 274.523 29.3833 263.084 29.3649 251.634C29.2229 238.456 30.534 225.303 33.2741 212.413C35.4119 201.998 39.3497 192.036 44.9099 182.98C49.6862 175.293 56.2799 168.905 64.1071 164.382C72.2844 159.882 81.5033 157.629 90.8292 157.851C100.204 157.679 109.416 160.325 117.276 165.449C125.463 171.068 132.297 178.446 137.281 187.046C143.531 197.662 148.398 209.037 151.761 220.894C156.026 235.433 159.397 250.221 161.855 265.173C164.633 281.484 166.909 299.126 168.683 318.098C170.225 334.324 171.534 351.291 172.611 369C192.935 366.834 212.603 360.524 230.404 350.457L230.882 350.162C231.432 349.04 231.983 347.918 232.478 346.722C235.238 340.114 237.389 333.267 238.902 326.266C240.574 318.631 241.744 310.894 242.407 303.106C243.104 294.999 243.453 286.868 243.453 278.712C243.509 268.688 242.97 258.669 241.838 248.709C240.841 240.196 239.346 231.75 237.36 223.414C235.476 215.602 233.28 208.103 230.771 200.916C228.263 193.729 225.608 186.5 222.806 179.228H246.555C250.58 194.337 254.08 210.457 257.053 227.59C260.107 245.609 261.606 263.858 261.531 282.134C261.616 297.458 260.227 312.754 257.383 327.811C257.163 328.933 256.906 330.037 256.667 331.141C267.804 320.656 277.186 308.445 284.454 294.975C297.485 271.121 304 243.809 304 213.039V129.007C303.879 120.857 300.534 113.089 294.7 107.411C288.867 101.732 281.022 98.6089 272.891 98.7269Z" fill="#4D22C5" fill-opacity="0.4"/>
</svg>
